<svg xmlns="http://www.w3.org/2000/svg" xmlns:xlink="http://www.w3.org/1999/xlink"><symbol id="LENNI"><g fill="none">
    <path d="M485.389 317.073V0H0v325h647.345v-7.927H485.389ZM675.453 325h200.745v-7.927H713.443V159.935h126.765v-7.926H713.443V7.927H876V0H675.453v325ZM941.896 325V8.393c34.39 0 141.564 13.989 149.554 194.907V325h37.99V0h-37.99v143.615c-9.59-48.027-28.39-82.998-57.18-108.177C998.68 3.73 958.291 0 941.896 0h-37.99v325h37.99ZM1207.45 325V8.393c34.39 0 141.56 13.989 149.56 194.907V325H1395V0h-37.99v143.615c-9.6-48.027-28.4-82.998-57.19-108.177C1264.23 3.73 1223.84 0 1207.45 0h-37.99v325h37.99ZM1473 0h-37.99v325H1920V0h-447Z" fill="#1F1E1E"/>
</g></symbol><symbol id="logo" viewBox="0 0 202 147"><g fill="none">
    <path fill="currectColor" d="M0 0h147v147H0z"/>
    <path d="M39.965 72.439H26.633V50.032h-.032v-.033h-4.686V73h18.05v-.561ZM43.932 73h18.117v-.561H48.618V61.285h10.494v-.594H48.618V50.56h13.43v-.561H43.933V73ZM70.7 73V50.56c2.87 0 11.714 1.089 12.374 13.893V73h4.686V49.999h-4.686v10.329C81.655 54.19 77.167 49.999 70.7 49.999h-4.686V73H70.7ZM97.39 73V50.56c2.87 0 11.714 1.089 12.374 13.893V73h4.686V49.999h-4.686v10.329c-1.419-6.138-5.907-10.329-12.375-10.329h-4.686V73h4.686ZM119.393 73h4.686V49.999h-4.686V73Z" fill="#fff"/>
    <path fill="#BC3324" d="M81 92h121v42H81z"/>
    <path d="M108.922 124h.54l2.94-8.55h8.55l3.33 8.55h4.47l-8.1-20.91h-4.53l-7.2 20.91Zm7.5-20.25 4.35 11.19h-8.19l3.84-11.19ZM132.644 103.09V124h4.26v-7.23h5.07l4.89 7.2h4.86l-5.16-7.65c3-.78 5.28-2.64 5.28-6.81 0-5.22-3.81-6.87-8.25-6.87-4.68 0-6.03 3.51-6.69 7.41v-6.96h-4.26Zm5.43 4.38c.81-2.94 2.91-4.14 4.77-4.29 4.47-.42 4.65 2.43 4.65 6.33 0 6.33-3.36 6.75-6.24 6.75h-4.35s-.12-4.14 1.17-8.79ZM162.084 103.6l.03 20.4h4.26v-20.4h8.61v-.51h-21.51v.51h8.61Z" fill="#fff"/>
</g></symbol></svg>